BBC Bang Goes the Theory S05E03 Episode 3 HD 720p x264 aac mp4 [aularon]


- - -
Synopsis
- - -
Jem witnesses the awesome power of rockets with the Bloodhound land speed record project, Yan re-enacts an Ancient Greek experiment to measure the earth's circumference with a couple of sticks, and Dallas goes in search of a robot to call his own.


- - -
URL
- - -  
http://www.bbc.co.uk/programmes/b0141vbp


- - -
Technical Details
- - -
General
Complete name                    : BBC.Bang.Goes.the.Theory.S05E03/Bang_Goes_the_Theory_Series_5_-_Episode_3_b0141vbp_default.mp4
Format                           : MPEG-4
Format profile                   : Base Media
Codec ID                         : isom
File size                        : 566 MiB
Duration                         : 29mn 19s
Overall bit rate                 : 2 700 Kbps
Movie name                       : Bang Goes the Theory: Series 5: Episode 3
Album                            : Bang Goes the Theory: Series 5
Track name/Position              : 3
Track name/Total                 : 0
Performer                        : Bang Goes the Theory: Series 5
Genre                            : Factual,Science & Nature
Recorded date                    : 2011-08-29T19:30:00+01:00
Tagged date                      : UTC 2011-08-29 20:11:12
Writing application              : Lavf53.6.0
Cover                            : Yes
Comment                          : Recorded using get_iplayer, by Aularon.
rtng                             : 2
stik                             : 1
desc                             : Science series. Jem witnesses the power of rockets with the Bloodhound land speed record project. Yan re-enacts an Ancient Greek experiment to measure the earth's circumference.
tvnn                             : BBC One
tvsh                             : Bang Goes the Theory: Series 5
tven                             : b0141vbp
catg                             : Factual,Science & Nature
tvsn                             : 5
tves                             : 3

Video
ID                               : 1
Format                           : AVC
Format/Info                      : Advanced Video Codec
Format profile                   : High@L4.1
Format settings, CABAC           : Yes
Format settings, ReFrames        : 6 frames
Format settings, GOP             : M=1, N=50
Codec ID                         : avc1
Codec ID/Info                    : Advanced Video Coding
Duration                         : 29mn 19s
Bit rate mode                    : Variable
Bit rate                         : 2 599 Kbps
Maximum bit rate                 : 3 500 Kbps
Width                            : 1 280 pixels
Height                           : 720 pixels
Display aspect ratio             : 16:9
Frame rate mode                  : Constant
Frame rate                       : 25.000 fps
Standard                         : PAL
Color space                      : YUV
Chroma subsampling               : 4:2:0
Bit depth                        : 8 bits
Scan type                        : Progressive
Bits/(Pixel*Frame)               : 0.113
Stream size                      : 545 MiB (96%)

Audio
ID                               : 2
Format                           : AAC
Format/Info                      : Advanced Audio Codec
Format profile                   : HE-AAC / LC
Codec ID                         : 40
Duration                         : 29mn 19s
Bit rate mode                    : Constant
Bit rate                         : 96.0 Kbps
Channel(s)                       : 2 channels
Channel positions                : Front: L R
Sampling rate                    : 48.0 KHz / 24.0 KHz
Compression mode                 : Lossy
Stream size                      : 19.9 MiB (4%)
